<?xml version="1.0" standalone="no"?>
<!DOCTYPE svg PUBLIC "-//W3C//DTD SVG 20010904//EN"
 "http://www.w3.org/TR/2001/REC-SVG-20010904/DTD/svg10.dtd">
<svg version="1.0" xmlns="http://www.w3.org/2000/svg"
 width="385.000000pt" height="177.000000pt" viewBox="0 0 385.000000 177.000000"
 preserveAspectRatio="xMidYMid meet">

<g transform="translate(0.000000,177.000000) scale(0.100000,-0.100000)"
fill="#000000" stroke="none">
<path d="M1767 1724 c-4 -4 -37 -6 -75 -5 -274 7 -825 -100 -1152 -224 -139
-52 -260 -107 -260 -117 0 -5 -4 -6 -10 -3 -8 5 -70 -20 -70 -28 0 -9 85 3 88
12 2 6 7 9 11 7 4 -3 52 8 106 25 291 87 599 145 985 186 231 24 759 24 995 0
389 -40 671 -94 1004 -191 81 -24 101 -25 101 -6 0 9 -144 73 -281 124 -304
112 -759 203 -1058 211 -79 2 -146 6 -149 9 -8 8 -227 7 -235 0z"/>
<path d="M3520 1365 c14 -8 19 -14 11 -15 -8 0 -12 -2 -9 -5 3 -3 13 -2 23 1
15 6 15 8 -6 20 -13 7 -28 13 -34 13 -5 0 1 -6 15 -14z"/>
<path d="M180 1330 c0 -5 5 -10 11 -10 5 0 7 5 4 10 -3 6 -8 10 -11 10 -2 0
-4 -4 -4 -10z"/>
<path d="M3580 1332 c0 -8 61 -34 67 -29 1 2 -13 11 -32 20 -19 9 -35 13 -35
9z"/>
<path d="M138 1314 c-37 -19 -35 -26 2 -13 17 6 30 15 30 20 0 11 1 11 -32 -7z"/>
<path d="M1393 1150 c-59 -14 -86 -51 -98 -135 -4 -28 -13 -54 -19 -60 -12
-10 -36 -49 -36 -59 0 -2 10 -6 23 -8 22 -3 22 -4 22 -191 l0 -187 51 0 52 0
-10 43 c-4 23 -7 107 -6 187 l3 145 48 3 c45 3 47 5 47 32 0 27 -2 29 -47 32
-47 3 -48 4 -51 38 -2 24 4 47 20 70 21 31 29 35 68 35 35 0 47 4 53 19 4 11
4 23 0 26 -13 12 -86 18 -120 10z"/>
<path d="M304 1133 c9 -29 11 -576 2 -600 -7 -22 -6 -23 62 -23 l70 0 -10 43
c-12 59 -6 212 8 212 6 0 41 -36 77 -80 35 -45 88 -102 117 -128 46 -41 58
-47 97 -47 52 0 52 -2 -28 92 -74 86 -142 186 -134 198 3 5 25 18 48 28 53 24
72 46 87 101 15 57 -1 129 -38 164 -46 44 -101 57 -239 57 -114 0 -124 -1
-119 -17z m215 -71 c72 -33 89 -116 35 -173 -26 -27 -106 -55 -125 -44 -10 7
-13 228 -3 238 9 8 49 -1 93 -21z"/>
<path d="M922 939 c-53 -26 -89 -85 -102 -164 -29 -175 104 -317 255 -275 35
10 46 19 54 43 6 16 11 31 11 32 0 2 -28 1 -62 -2 -55 -4 -68 -2 -98 19 -40
27 -76 87 -67 111 5 15 24 17 128 17 l121 0 -4 70 c-4 74 -19 105 -70 143 -40
30 -114 33 -166 6z m125 -64 c29 -29 34 -40 31 -72 l-3 -38 -85 0 -85 0 -3 33
c-3 27 4 40 36 73 22 21 47 39 57 39 9 0 33 -16 52 -35z"/>
<path d="M1754 916 c-43 -52 -68 -52 -62 0 l4 34 -51 0 -50 0 0 -220 0 -220
55 0 55 0 -3 155 -3 156 36 36 c29 29 41 35 69 31 31 -3 35 -1 40 25 9 45 8
47 -24 47 -22 0 -38 -10 -66 -44z"/>
<path d="M2024 941 c-142 -65 -145 -344 -5 -418 44 -23 118 -30 167 -17 19 5
44 41 44 63 0 4 -26 5 -57 3 -48 -3 -64 0 -92 20 -38 26 -76 90 -67 113 4 12
28 15 126 15 l120 0 0 43 c0 155 -108 236 -236 178z m90 -41 c32 -12 58 -62
54 -103 l-3 -32 -78 -3 c-63 -2 -78 0 -83 13 -9 23 24 102 49 120 25 18 28 18
61 5z"/>
<path d="M2419 937 c-19 -12 -42 -40 -53 -61 -28 -57 -11 -100 69 -180 70 -68
78 -93 45 -126 -23 -23 -64 -25 -100 -5 -36 21 -40 19 -40 -19 0 -34 2 -35 46
-42 102 -15 164 14 185 87 20 66 5 106 -67 174 -40 38 -64 70 -64 83 0 30 43
56 91 54 35 -2 39 1 39 22 0 16 -7 26 -22 30 -46 12 -95 6 -129 -17z"/>
<path d="M2817 946 c-159 -43 -212 -272 -90 -388 41 -39 94 -58 163 -58 60 0
61 0 76 35 7 19 14 36 14 37 0 2 -18 2 -40 0 -58 -6 -85 4 -130 44 -51 46 -64
92 -49 165 21 97 107 152 180 115 18 -9 34 -16 36 -16 1 0 3 15 3 34 0 30 -4
34 -31 40 -44 9 -77 7 -132 -8z"/>
<path d="M3182 939 c-78 -39 -112 -107 -112 -223 1 -130 61 -204 174 -214 94
-8 175 37 217 120 62 122 17 257 -106 314 -62 30 -117 30 -173 3z m119 -52
c66 -44 97 -121 83 -206 -7 -44 -41 -109 -65 -124 -36 -22 -108 25 -146 97
-33 61 -14 177 39 244 16 19 51 14 89 -11z"/>
</g>
</svg>
